
      <svg data-logo="logo" xmlns="http://www.w3.org/2000/svg" viewBox="0 0 234 42">
        <g id="logogram" transform="translate(0, 1) rotate(0) "><path d="M16.6584 40H15.3817C12.0653 40 10.07 39.9994 8.54581 39.7159L17.3668 28.0344L16.6584 40Z" fill="#256"/><path d="M31.2482 39.7514C29.7502 39.9988 27.7875 40 24.6183 40H23.109L22.397 28.0309L31.2482 39.7514Z" fill="#2563eb"/><path d="M39.6715 31.6708C39.6071 31.9773 39.5313 32.2655 39.4389 32.5426C38.8337 34.3567 37.7712 35.9522 36.3867 37.1982L26.44 26.044L39.6715 31.6708Z" fill="#2563eb"/><path d="M3.48544 37.0792C2.16397 35.8511 1.14739 34.3 0.56108 32.5426C0.459551 32.2382 0.375253 31.921 0.307173 31.5803L13.3239 26.0458L3.48544 37.0792Z" fill="#2563eb"/><path d="M40 24.6183C40 25.7428 39.9968 26.7154 39.9858 27.5692L28.1729 23.006H40V24.6183Z" fill="#2563eb"/><path d="M11.5962 23.006L0.0106534 27.4805C0.000706106 26.6481 0 25.704 0 24.6183V23.006H11.5962Z" fill="#2563eb"/><path d="M24.6183 0C28.7807 0 30.862 0.000553673 32.5426 0.56108C35.7979 1.64713 38.3529 4.20208 39.4389 7.45739C39.9994 9.13798 40 11.2193 40 15.3817V20.016H27.5089L36.5181 16.1861L33.8459 14.4123L25.1048 17.7876L29.2081 12.358L26.2571 11.5501L21.7259 16.6282L21.3885 10.9091H18.3825L18.0398 16.6282L13.5121 11.5501L10.5629 12.358L14.6609 17.7859L5.92507 14.4123L3.25284 16.1861L12.2603 20.016H0V15.3817C0 11.2193 0.000553673 9.13798 0.56108 7.45739C1.64713 4.20208 4.20208 1.64713 7.45739 0.56108C9.13798 0.000553673 11.2193 0 15.3817 0H24.6183Z" fill="#2563eb"/></g>
        <g id="logotype" transform="translate(46, 6.5)"><path fill="#1f1f1f" d="M15.38 29.25L15.38 29.25Q13.63 29.25 12.18 28.75Q10.73 28.27 9.64 27.34Q8.55 26.41 7.87 25.15Q7.19 23.89 6.95 22.35L6.95 22.35L12.44 20.67Q12.72 22.31 13.40 23.14Q14.09 23.96 15.17 23.96L15.17 23.96Q15.98 23.96 16.48 23.63Q16.99 23.29 17.25 22.66Q17.52 22.04 17.52 21.20L17.52 21.20L17.52 4.43L23.47 4.43L23.47 21.20Q23.47 23.79 22.47 25.59Q21.47 27.39 19.67 28.32Q17.87 29.25 15.38 29.25ZM32.88 29L27.00 29L27.00 9.47L32.88 9.47L32.88 29ZM29.98 7.40L29.98 7.40Q28.26 7.40 27.18 6.42Q26.09 5.44 26.09 3.97L26.09 3.97Q26.09 2.47 27.18 1.47Q28.26 0.47 29.98 0.47L29.98 0.47Q31.66 0.47 32.74 1.47Q33.83 2.47 33.83 3.97L33.83 3.97Q33.83 5.44 32.74 6.42Q31.66 7.40 29.98 7.40ZM41.84 29L35.93 29L35.93 9.47L41.84 9.47L41.84 29ZM41.84 20.60L40.93 20.60L41.84 14.19Q42.47 11.92 44.05 10.61Q45.62 9.29 48.07 9.29L48.07 9.29L48.07 15.45Q47.69 15.38 47.34 15.35Q46.98 15.31 46.64 15.31L46.64 15.31Q45.34 15.31 44.26 15.93Q43.17 16.54 42.51 17.71Q41.84 18.88 41.84 20.60L41.84 20.60ZM57.24 29.25L57.24 29.25Q54.69 29.25 52.78 27.91Q50.87 26.59 49.84 24.33Q48.80 22.07 48.80 19.23L48.80 19.23Q48.80 16.43 49.84 14.16Q50.87 11.88 52.78 10.55Q54.69 9.22 57.24 9.22L57.24 9.22Q59.48 9.22 61.14 10.43Q62.81 11.64 63.47 13.81L63.47 13.81L63.47 9.47L69.39 9.47L69.39 29L66.48 29Q65.08 29 64.28 28.21Q63.47 27.43 63.47 26.02L63.47 26.02L63.47 24.70Q62.81 26.83 61.14 28.04Q59.48 29.25 57.24 29.25ZM59.17 24.06L59.17 24.06Q60.32 24.06 61.30 23.50Q62.28 22.95 62.88 21.86Q63.47 20.77 63.47 19.23L63.47 19.23Q63.47 17.73 62.88 16.64Q62.28 15.56 61.30 14.96Q60.32 14.37 59.17 14.37L59.17 14.37Q57.98 14.37 57.00 14.96Q56.02 15.56 55.44 16.64Q54.86 17.73 54.86 19.23L54.86 19.23Q54.86 20.77 55.44 21.86Q56.02 22.95 57.01 23.50Q58.01 24.06 59.17 24.06ZM74.29 19.16L74.29 14.23L89.65 14.23L89.65 19.16L74.29 19.16ZM102.57 29.25L102.57 29.25Q99.66 29.25 97.46 28.00Q95.25 26.76 94.01 24.52Q92.77 22.28 92.77 19.23L92.77 19.23Q92.77 16.23 93.99 13.98Q95.22 11.74 97.42 10.48Q99.63 9.22 102.57 9.22L102.57 9.22Q103.97 9.22 105.31 9.50Q106.66 9.78 107.87 10.47Q109.08 11.15 110.02 12.32Q110.97 13.49 111.53 15.28L111.53 15.28L105.82 17.10Q105.44 15.73 104.60 15.00Q103.76 14.26 102.46 14.26L102.46 14.26Q101.38 14.26 100.55 14.82Q99.73 15.38 99.28 16.49Q98.82 17.59 98.82 19.23L98.82 19.23Q98.82 20.81 99.28 21.95Q99.73 23.09 100.55 23.68Q101.38 24.27 102.46 24.27L102.46 24.27Q104.04 24.27 104.86 23.33Q105.68 22.38 105.93 21.02L105.93 21.02L111.81 22.42Q111.35 24.17 110.18 25.73Q109.01 27.29 107.12 28.27Q105.23 29.25 102.57 29.25ZM113.77 22.95L113.77 22.95L113.77 3.10L119.68 3.10L119.68 22.66Q119.68 23.43 120.15 23.82Q120.63 24.20 121.26 24.20L121.26 24.20Q121.68 24.20 122.06 24.06L122.06 24.06L123.01 28.61Q121.61 29.25 119.86 29.25L119.86 29.25Q118.39 29.25 116.99 28.65Q115.59 28.05 114.68 26.67Q113.77 25.29 113.77 22.95ZM133.37 29.25L133.37 29.25Q130.50 29.25 128.22 28.04Q125.95 26.83 124.63 24.55Q123.32 22.28 123.32 19.23L123.32 19.23Q123.32 16.16 124.65 13.91Q125.98 11.67 128.27 10.45Q130.57 9.22 133.44 9.22L133.44 9.22Q136.34 9.22 138.63 10.43Q140.93 11.64 142.26 13.90Q143.59 16.16 143.59 19.23L143.59 19.23Q143.59 22.28 142.22 24.55Q140.86 26.83 138.55 28.04Q136.24 29.25 133.37 29.25ZM133.37 24.13L133.37 24.13Q134.45 24.13 135.41 23.59Q136.38 23.05 136.97 21.96Q137.57 20.88 137.57 19.23L137.57 19.23Q137.57 17.55 136.97 16.49Q136.38 15.42 135.45 14.89Q134.52 14.37 133.44 14.37L133.44 14.37Q132.35 14.37 131.42 14.89Q130.50 15.42 129.92 16.49Q129.34 17.55 129.34 19.23L129.34 19.23Q129.34 20.88 129.88 21.96Q130.43 23.05 131.35 23.59Q132.28 24.13 133.37 24.13ZM151.46 29L145.55 29L145.55 9.47L151.46 9.47L151.46 13.63Q151.88 12.27 152.83 11.29Q153.77 10.31 155.01 9.77Q156.26 9.22 157.59 9.22L157.59 9.22Q159.83 9.22 161.47 10.24Q163.12 11.25 164.03 13.11Q164.94 14.96 164.94 17.52L164.94 17.52L164.94 29L159.02 29L159.02 18.46Q159.02 16.47 158.01 15.31Q156.99 14.16 155.28 14.16L155.28 14.16Q154.12 14.16 153.26 14.77Q152.41 15.38 151.93 16.43Q151.46 17.48 151.46 18.81L151.46 18.81L151.46 29ZM177.43 29.25L177.43 29.25Q175.30 29.25 173.35 28.58Q171.41 27.91 169.92 26.64Q168.44 25.36 167.58 23.54Q166.72 21.72 166.72 19.38L166.72 19.38Q166.72 17.13 167.54 15.28Q168.37 13.42 169.78 12.06Q171.20 10.69 173.07 9.96Q174.95 9.22 177.05 9.22L177.05 9.22Q178.76 9.22 180.32 9.68Q181.88 10.13 183.12 11.01Q184.36 11.88 185.08 13.07Q185.80 14.26 185.80 15.73L185.80 15.73Q185.80 17.59 184.75 18.81Q183.70 20.04 182.00 20.74Q180.30 21.44 178.29 21.74Q176.28 22.04 174.32 22L174.32 22Q174.07 22 173.74 21.98Q173.41 21.96 173.13 21.95Q172.85 21.93 172.71 21.93L172.71 21.93Q172.92 22.73 173.60 23.38Q174.28 24.03 175.33 24.41Q176.38 24.80 177.50 24.80L177.50 24.80Q178.62 24.80 179.65 24.41Q180.69 24.03 181.53 23.43Q182.37 22.84 182.96 22.11L182.96 22.11L186.74 25.08Q185.69 26.48 184.19 27.41Q182.68 28.34 180.95 28.79Q179.22 29.25 177.43 29.25ZM174.35 18.11L174.35 18.11Q175.30 18.11 176.31 18.01Q177.33 17.91 178.18 17.64Q179.04 17.38 179.58 16.91Q180.13 16.43 180.13 15.70L180.13 15.70Q180.13 15.10 179.71 14.65Q179.29 14.19 178.59 13.95Q177.89 13.70 177.08 13.70L177.08 13.70Q175.68 13.70 174.63 14.37Q173.58 15.03 173.02 16.03Q172.46 17.03 172.39 18.04L172.39 18.04Q172.71 18.08 173.25 18.10Q173.79 18.11 174.35 18.11Z"/></g>
        
      </svg>
    